<svg version="1.1" viewBox="0.0 0.0 468.23622047244095 509.41207349081367" fill="none" stroke="none" stroke-linecap="square" stroke-miterlimit="10" xmlns:xlink="http://www.w3.org/1999/xlink" xmlns="http://www.w3.org/2000/svg"><clipPath id="p.0"><path d="m0 0l468.2362 0l0 509.41208l-468.2362 0l0 -509.41208z" clip-rule="nonzero"/></clipPath><g clip-path="url(#p.0)"><path fill="#000000" fill-opacity="0.0" d="m0 0l468.2362 0l0 509.41208l-468.2362 0z" fill-rule="evenodd"/><path fill="#000000" fill-opacity="0.0" d="m209.69817 20.0l186.48817 0l0 448.9134l-186.48817 0z" fill-rule="evenodd"/><path stroke="#000000" stroke-width="1.0" stroke-linejoin="round" stroke-linecap="butt" d="m209.69817 20.0l186.48817 0l0 448.9134l-186.48817 0z" fill-rule="evenodd"/><path fill="#d9ead3" d="m209.69817 20.0l186.48817 0l0 97.543304l-186.48817 0z" fill-rule="evenodd"/><path stroke="#000000" stroke-width="1.0" stroke-linejoin="round" stroke-linecap="butt" d="m209.69817 20.0l186.48817 0l0 97.543304l-186.48817 0z" fill-rule="evenodd"/><path fill="#000000" d="m228.39813 62.051025q2.21875 0 3.515625 1.078125q1.3125 1.078125 1.390625 3.140625l-1.671875 0q-0.15625 -1.359375 -1.0 -2.03125q-0.828125 -0.6875 -2.3125 -0.6875q-1.421875 0 -2.203125 0.59375q-0.78125 0.578125 -0.78125 1.671875q0 0.78125 0.65625 1.28125q0.671875 0.5 3.625 1.09375q2.125 0.4375 3.171875 1.34375q1.0625 0.90625 1.0625 2.5q0 1.859375 -1.515625 2.921875q-1.515625 1.046875 -3.6875 1.046875q-2.421875 0 -3.953125 -1.203125q-1.53125 -1.21875 -1.546875 -3.484375l1.6875 0q0.015625 1.515625 1.078125 2.359375q1.078125 0.84375 2.796875 0.84375q1.609375 0 2.484375 -0.625q0.890625 -0.625 0.890625 -1.796875q0 -0.953125 -0.8125 -1.515625q-0.8125 -0.578125 -2.9375 -1.0q-2.84375 -0.53125 -3.8125 -1.375q-0.953125 -0.859375 -0.953125 -2.25q0 -1.796875 1.359375 -2.84375q1.359375 -1.0625 3.46875 -1.0625zm8.932053 0.328125l0 5.09375l0.03125 0q0.34375 -0.78125 1.171875 -1.203125q0.828125 -0.4375 1.875 -0.4375q1.75 0 2.53125 0.890625q0.796875 0.890625 0.796875 2.546875l0 6.421875l-1.59375 0l0 -6.59375q0 -0.8125 -0.53125 -1.34375q-0.515625 -0.53125 -1.4375 -0.53125q-1.34375 0 -2.09375 0.828125q-0.75 0.8125 -0.75 2.125l0 5.515625l-1.59375 0l0 -13.3125l1.59375 0zm12.735092 3.453125q1.96875 0 2.78125 0.703125q0.828125 0.6875 0.828125 1.875q0 5.015625 0 5.5625q0 0.546875 0.5 0.546875q0.109375 0 0.234375 -0.03125q0.140625 -0.03125 0.25 -0.0625l0 1.234375q-0.21875 0.125 -0.5 0.1875q-0.28125 0.078125 -0.625 0.078125q-0.65625 0 -1.0 -0.375q-0.34375 -0.375 -0.34375 -1.125q-0.640625 0.75 -1.5 1.125q-0.84375 0.375 -1.90625 0.375q-1.484375 0 -2.34375 -0.703125q-0.84375 -0.71875 -0.84375 -2.015625q0 -1.296875 0.828125 -2.046875q0.828125 -0.765625 3.90625 -1.15625q1.03125 -0.140625 1.390625 -0.390625q0.375 -0.265625 0.375 -0.796875q0 -0.796875 -0.515625 -1.1875q-0.5 -0.40625 -1.625 -0.40625q-1.171875 0 -1.765625 0.453125q-0.59375 0.4375 -0.640625 1.375l-1.578125 0q0.078125 -1.609375 1.125 -2.40625q1.0625 -0.8125 2.96875 -0.8125zm-2.796875 7.265625q0 0.671875 0.484375 1.046875q0.5 0.375 1.390625 0.375q1.34375 0 2.140625 -0.65625q0.796875 -0.671875 0.796875 -1.5l0 -1.65625q-0.390625 0.28125 -1.03125 0.390625q-0.640625 0.09375 -1.703125 0.234375q-1.046875 0.15625 -1.5625 0.578125q-0.515625 0.421875 -0.515625 1.1875zm13.676697 -7.28125q0.046875 0 0.09375 0q0.046875 0 0.125 0.015625l0 1.671875q-1.796875 0 -2.65625 0.953125q-0.84375 0.9375 -0.84375 2.921875l0 4.3125l-1.578125 0l0 -9.640625l1.484375 0l0 2.03125l0.046875 0q0.546875 -1.15625 1.359375 -1.703125q0.828125 -0.5625 1.96875 -0.5625zm5.0785522 0.015625q2.078125 0 3.21875 1.5q1.15625 1.484375 1.15625 3.828125l0 0.1875l-7.234375 0l0 0.109375q0 1.390625 0.796875 2.234375q0.8125 0.828125 2.21875 0.828125q1.046875 0 1.671875 -0.484375q0.625 -0.5 0.828125 -1.40625l1.5625 0q-0.328125 1.609375 -1.40625 2.453125q-1.078125 0.84375 -2.71875 0.84375q-1.515625 0 -2.578125 -0.6875q-1.046875 -0.6875 -1.546875 -1.90625q-0.5 -1.234375 -0.5 -2.515625q0 -2.140625 1.28125 -3.5625q1.296875 -1.421875 3.25 -1.421875zm-2.859375 4.109375l5.546875 0q-0.078125 -1.171875 -0.859375 -1.9375q-0.765625 -0.78125 -1.9375 -0.78125q-1.09375 0 -1.875 0.734375q-0.765625 0.734375 -0.875 1.984375zm17.489197 -7.5625l0 13.3125l-1.59375 0l0 -1.296875l-0.03125 0q-0.375 0.734375 -1.1875 1.140625q-0.8125 0.390625 -1.890625 0.390625q-2.015625 0 -3.234375 -1.40625q-1.203125 -1.40625 -1.203125 -3.671875q0 -2.234375 1.171875 -3.625q1.171875 -1.390625 3.21875 -1.390625q0.953125 0 1.796875 0.390625q0.859375 0.375 1.328125 1.109375l0.03125 0l0 -4.953125l1.59375 0zm-7.46875 8.5625q0 1.5625 0.8125 2.578125q0.8125 1.0 2.1875 1.0q1.390625 0 2.15625 -1.0q0.78125 -1.015625 0.78125 -2.640625q0 -1.640625 -0.796875 -2.640625q-0.78125 -1.015625 -2.265625 -1.015625q-1.359375 0 -2.125 1.0q-0.75 0.984375 -0.75 2.71875zm17.117249 -8.5625l0 11.8125l7.0625 0l0 1.5l-8.828125 0l0 -13.3125l1.765625 0zm10.031952 0l0 1.9375l-1.59375 0l0 -1.9375l1.59375 0zm0 3.671875l0 9.640625l-1.59375 0l0 -9.640625l1.59375 0zm4.0979614 -3.671875l0 4.984375l0.046875 0q0.375 -0.75 1.171875 -1.140625q0.796875 -0.390625 1.90625 -0.390625q2.0625 0 3.25 1.421875q1.1875 1.421875 1.1875 3.640625q0 2.25 -1.1875 3.640625q-1.171875 1.390625 -3.203125 1.390625q-0.90625 0 -1.765625 -0.375q-0.859375 -0.375 -1.359375 -1.140625l-0.046875 0l0 1.28125l-1.578125 0l0 -13.3125l1.578125 0zm-0.046875 8.484375q0 1.671875 0.8125 2.671875q0.8125 0.984375 2.234375 0.984375q1.375 0 2.125 -0.984375q0.75 -0.984375 0.75 -2.75q0 -1.546875 -0.796875 -2.546875q-0.796875 -1.015625 -2.1875 -1.015625q-1.40625 0 -2.171875 1.015625q-0.765625 1.015625 -0.765625 2.625zm14.277679 -5.046875q0.046875 0 0.09375 0q0.046875 0 0.125 0.015625l0 1.671875q-1.796875 0 -2.65625 0.953125q-0.84375 0.9375 -0.84375 2.921875l0 4.3125l-1.578125 0l0 -9.640625l1.484375 0l0 2.03125l0.046875 0q0.546875 -1.15625 1.359375 -1.703125q0.828125 -0.5625 1.96875 -0.5625zm4.9066772 0.015625q1.96875 0 2.78125 0.703125q0.828125 0.6875 0.828125 1.875q0 5.015625 0 5.5625q0 0.546875 0.5 0.546875q0.109375 0 0.234375 -0.03125q0.140625 -0.03125 0.25 -0.0625l0 1.234375q-0.21875 0.125 -0.5 0.1875q-0.28125 0.078125 -0.625 0.078125q-0.65625 0 -1.0 -0.375q-0.34375 -0.375 -0.34375 -1.125q-0.640625 0.75 -1.5 1.125q-0.84375 0.375 -1.90625 0.375q-1.484375 0 -2.34375 -0.703125q-0.84375 -0.71875 -0.84375 -2.015625q0 -1.296875 0.828125 -2.046875q0.828125 -0.765625 3.90625 -1.15625q1.03125 -0.140625 1.390625 -0.390625q0.375 -0.265625 0.375 -0.796875q0 -0.796875 -0.515625 -1.1875q-0.5 -0.40625 -1.625 -0.40625q-1.171875 0 -1.765625 0.453125q-0.59375 0.4375 -0.640625 1.375l-1.578125 0q0.078125 -1.609375 1.125 -2.40625q1.0625 -0.8125 2.96875 -0.8125zm-2.796875 7.265625q0 0.671875 0.484375 1.046875q0.5 0.375 1.390625 0.375q1.34375 0 2.140625 -0.65625q0.796875 -0.671875 0.796875 -1.5l0 -1.65625q-0.390625 0.28125 -1.03125 0.390625q-0.640625 0.09375 -1.703125 0.234375q-1.046875 0.15625 -1.5625 0.578125q-0.515625 0.421875 -0.515625 1.1875zm13.676697 -7.28125q0.046875 0 0.09375 0q0.046875 0 0.125 0.015625l0 1.671875q-1.796875 0 -2.65625 0.953125q-0.84375 0.9375 -0.84375 2.921875l0 4.3125l-1.578125 0l0 -9.640625l1.484375 0l0 2.03125l0.046875 0q0.546875 -1.15625 1.359375 -1.703125q0.828125 -0.5625 1.96875 -0.5625zm2.259552 0.234375l2.8125 7.875l0.046875 0l2.703125 -7.875l1.6875 0l-4.109375 10.671875q-0.640625 1.671875 -1.234375 2.25q-0.59375 0.578125 -1.65625 0.578125q-0.296875 0 -0.578125 -0.03125q-0.265625 -0.03125 -0.53125 -0.125l0 -1.46875q0.234375 0.078125 0.46875 0.140625q0.234375 0.078125 0.46875 0.078125q0.96875 0 1.34375 -0.96875q0.390625 -0.953125 0.609375 -1.53125l-3.828125 -9.59375l1.796875 0zm23.261444 -3.671875l0 1.484375l-4.4375 0l0 11.828125l-1.765625 0l0 -11.828125l-4.453125 0l0 -1.484375l10.65625 0zm3.4328003 3.453125q2.078125 0 3.21875 1.5q1.15625 1.484375 1.15625 3.828125l0 0.1875l-7.234375 0l0 0.109375q0 1.390625 0.796875 2.234375q0.8125 0.828125 2.21875 0.828125q1.046875 0 1.671875 -0.484375q0.625 -0.5 0.828125 -1.40625l1.5625 0q-0.328125 1.609375 -1.40625 2.453125q-1.078125 0.84375 -2.71875 0.84375q-1.515625 0 -2.578125 -0.6875q-1.046875 -0.6875 -1.546875 -1.90625q-0.5 -1.234375 -0.5 -2.515625q0 -2.140625 1.28125 -3.5625q1.296875 -1.421875 3.25 -1.421875zm-2.859375 4.109375l5.546875 0q-0.078125 -1.171875 -0.859375 -1.9375q-0.765625 -0.78125 -1.9375 -0.78125q-1.09375 0 -1.875 0.734375q-0.765625 0.734375 -0.875 1.984375zm9.792603 -3.890625l2.3125 3.359375l0.015625 0l2.390625 -3.359375l1.90625 0l-3.3125 4.4375l3.71875 5.203125l-2.03125 0l-2.6875 -3.984375l-2.671875 3.984375l-1.9375 0l3.640625 -5.078125l-3.375 -4.5625l2.03125 0zm10.602661 -2.890625l0 2.890625l1.921875 0l0 1.390625l-1.921875 0l0 6.046875q0 0.71875 0.484375 0.765625q0.484375 0.03125 1.0 0.03125l0.4375 0l0 1.40625l-1.296875 0q-1.3125 0 -1.765625 -0.453125q-0.4375 -0.46875 -0.4375 -1.5625l0 -6.234375l-1.65625 0l0 -1.390625l1.65625 0l0 -2.890625l1.578125 0z" fill-rule="nonzero"/><path fill="#d9ead3" d="m209.69817 117.543304l186.48817 0l0 97.543304l-186.48817 0z" fill-rule="evenodd"/><path stroke="#000000" stroke-width="1.0" stroke-linejoin="round" stroke-linecap="butt" d="m209.69817 117.543304l186.48817 0l0 97.543304l-186.48817 0z" fill-rule="evenodd"/><path fill="#000000" d="m243.48843 159.92245l5.203125 13.3125l-1.953125 0l-1.453125 -4.015625l-5.640625 0l-1.5 4.015625l-1.8125 0l5.203125 -13.3125l1.953125 0zm-1.03125 1.59375l-2.25 6.21875l4.515625 0l-2.21875 -6.21875l-0.046875 0zm12.041428 1.859375q2.0625153 0 3.2500153 1.421875q1.1875 1.421875 1.1875 3.640625q0 2.25 -1.1875 3.640625q-1.171875 1.390625 -3.2031403 1.390625q-0.90625 0 -1.765625 -0.375q-0.859375 -0.375 -1.359375 -1.140625l-0.046875 0l0 4.984375l-1.578125 0l0 -13.34375l1.578125 0l0 1.3125l0.046875 0q0.375 -0.75 1.171875 -1.140625q0.8125 -0.390625 1.90625 -0.390625zm-3.171875 5.03125q0 1.671875 0.8125 2.671875q0.8125 0.984375 2.234375 0.984375q1.375 0 2.1250153 -0.984375q0.75 -0.984375 0.75 -2.75q0 -1.546875 -0.796875 -2.546875q-0.79689026 -1.015625 -2.1875153 -1.015625q-1.40625 0 -2.171875 1.015625q-0.765625 1.015625 -0.765625 2.625zm14.23082 -5.03125q2.0625 0 3.25 1.421875q1.1875 1.421875 1.1875 3.640625q0 2.25 -1.1875 3.640625q-1.171875 1.390625 -3.203125 1.390625q-0.90625 0 -1.765625 -0.375q-0.859375 -0.375 -1.359375 -1.140625l-0.046875 0l0 4.984375l-1.578125 0l0 -13.34375l1.578125 0l0 1.3125l0.046875 0q0.375 -0.75 1.171875 -1.140625q0.8125 -0.390625 1.90625 -0.390625zm-3.171875 5.03125q0 1.671875 0.8125 2.671875q0.8125 0.984375 2.234375 0.984375q1.375 0 2.125 -0.984375q0.75 -0.984375 0.75 -2.75q0 -1.546875 -0.796875 -2.546875q-0.796875 -1.015625 -2.1875 -1.015625q-1.40625 0 -2.171875 1.015625q-0.765625 1.015625 -0.765625 2.625zm11.152679 -8.484375l0 13.3125l-1.59375 0l0 -13.3125l1.59375 0zm4.144806 0l0 1.9375l-1.59375 0l0 -1.9375l1.59375 0zm0 3.671875l0 9.640625l-1.59375 0l0 -9.640625l1.59375 0zm6.4885864 -0.21875q1.765625 0 2.859375 0.84375q1.109375 0.828125 1.296875 2.46875l-1.625 0q-0.203125 -0.9375 -0.828125 -1.421875q-0.625 -0.5 -1.5625 -0.5q-1.484375 0 -2.25 0.984375q-0.765625 0.984375 -0.765625 2.78125q0 1.609375 0.75 2.578125q0.765625 0.953125 2.078125 0.953125q1.15625 0 1.8125 -0.625q0.671875 -0.625 0.828125 -1.734375l1.625 0q-0.265625 1.8125 -1.359375 2.796875q-1.09375 0.96875 -2.890625 0.96875q-2.109375 0 -3.3125 -1.328125q-1.203125 -1.328125 -1.203125 -3.609375q0 -2.359375 1.21875 -3.75q1.21875 -1.40625 3.328125 -1.40625zm9.942322 0q1.96875 0 2.78125 0.703125q0.828125 0.6875 0.828125 1.875q0 5.015625 0 5.5625q0 0.546875 0.5 0.546875q0.109375 0 0.234375 -0.03125q0.140625 -0.03125 0.25 -0.0625l0 1.234375q-0.21875 0.125 -0.5 0.1875q-0.28125 0.078125 -0.625 0.078125q-0.65625 0 -1.0 -0.375q-0.34375 -0.375 -0.34375 -1.125q-0.640625 0.75 -1.5 1.125q-0.84375 0.375 -1.90625 0.375q-1.484375 0 -2.34375 -0.703125q-0.84375 -0.71875 -0.84375 -2.015625q0 -1.296875 0.828125 -2.046875q0.828125 -0.765625 3.90625 -1.15625q1.03125 -0.140625 1.390625 -0.390625q0.375 -0.265625 0.375 -0.796875q0 -0.796875 -0.515625 -1.1875q-0.5 -0.40625 -1.625 -0.40625q-1.171875 0 -1.765625 0.453125q-0.59375 0.4375 -0.640625 1.375l-1.578125 0q0.078125 -1.609375 1.125 -2.40625q1.0625 -0.8125 2.96875 -0.8125zm-2.796875 7.265625q0 0.671875 0.484375 1.046875q0.5 0.375 1.390625 0.375q1.34375 0 2.140625 -0.65625q0.796875 -0.671875 0.796875 -1.5l0 -1.65625q-0.390625 0.28125 -1.03125 0.390625q-0.640625 0.09375 -1.703125 0.234375q-1.046875 0.15625 -1.5625 0.578125q-0.515625 0.421875 -0.515625 1.1875zm11.067322 -9.9375l0 2.890625l1.921875 0l0 1.390625l-1.921875 0l0 6.046875q0 0.71875 0.484375 0.765625q0.484375 0.03125 1.0 0.03125l0.4375 0l0 1.40625l-1.296875 0q-1.3125 0 -1.765625 -0.453125q-0.4375 -0.46875 -0.4375 -1.5625l0 -6.234375l-1.65625 0l0 -1.390625l1.65625 0l0 -2.890625l1.578125 0zm5.3599854 -0.78125l0 1.9375l-1.59375 0l0 -1.9375l1.59375 0zm0 3.671875l0 9.640625l-1.59375 0l0 -9.640625l1.59375 0zm6.6292114 -0.21875q2.1875 0 3.421875 1.40625q1.25 1.40625 1.25 3.640625q0 2.25 -1.28125 3.65625q-1.265625 1.390625 -3.390625 1.390625q-2.09375 0 -3.390625 -1.375q-1.296875 -1.375 -1.296875 -3.671875q0 -2.296875 1.265625 -3.671875q1.265625 -1.375 3.421875 -1.375zm-3.015625 5.046875q0 1.65625 0.84375 2.65625q0.859375 0.984375 2.171875 0.984375q1.296875 0 2.140625 -0.984375q0.859375 -1.0 0.859375 -2.65625q0 -1.640625 -0.84375 -2.640625q-0.84375 -1.015625 -2.171875 -1.015625q-1.28125 0 -2.140625 0.984375q-0.859375 0.984375 -0.859375 2.671875zm14.228394 -5.046875q1.75 0 2.53125 0.890625q0.796875 0.890625 0.796875 2.546875l0 6.421875l-1.59375 0l0 -6.59375q0 -0.8125 -0.53125 -1.34375q-0.515625 -0.53125 -1.4375 -0.53125q-1.34375 0 -2.09375 0.828125q-0.75 0.8125 -0.75 2.125l0 5.515625l-1.59375 0l0 -9.640625l1.5 0l0 1.53125l0.03125 0q0.53125 -0.90625 1.296875 -1.328125q0.78125 -0.421875 1.84375 -0.421875zm20.387115 -3.453125l0 1.484375l-4.4375 0l0 11.828125l-1.765625 0l0 -11.828125l-4.4530945 0l0 -1.484375l10.6562195 0zm3.4328308 3.453125q2.078125 0 3.21875 1.5q1.15625 1.484375 1.15625 3.828125l0 0.1875l-7.234375 0l0 0.109375q0 1.390625 0.796875 2.234375q0.8125 0.828125 2.21875 0.828125q1.046875 0 1.671875 -0.484375q0.625 -0.5 0.828125 -1.40625l1.5625 0q-0.328125 1.609375 -1.40625 2.453125q-1.078125 0.84375 -2.71875 0.84375q-1.515625 0 -2.578125 -0.6875q-1.046875 -0.6875 -1.546875 -1.90625q-0.5 -1.234375 -0.5 -2.515625q0 -2.140625 1.28125 -3.5625q1.296875 -1.421875 3.25 -1.421875zm-2.859375 4.109375l5.546875 0q-0.078125 -1.171875 -0.859375 -1.9375q-0.765625 -0.78125 -1.9375 -0.78125q-1.09375 0 -1.875 0.734375q-0.765625 0.734375 -0.875 1.984375zm9.792572 -3.890625l2.3125 3.359375l0.015625 0l2.390625 -3.359375l1.90625 0l-3.3125 4.4375l3.71875 5.203125l-2.03125 0l-2.6875 -3.984375l-2.671875 3.984375l-1.9375 0l3.640625 -5.078125l-3.375 -4.5625l2.03125 0zm10.602692 -2.890625l0 2.890625l1.921875 0l0 1.390625l-1.921875 0l0 6.046875q0 0.71875 0.484375 0.765625q0.484375 0.03125 1.0 0.03125l0.4375 0l0 1.40625l-1.296875 0q-1.3125 0 -1.765625 -0.453125q-0.4375 -0.46875 -0.4375 -1.5625l0 -6.234375l-1.65625 0l0 -1.390625l1.65625 0l0 -2.890625l1.578125 0z" fill-rule="nonzero"/><path fill="#fff2cc" d="m209.69817 421.64566l186.48817 0l0 47.275604l-186.48817 0z" fill-rule="evenodd"/><path stroke="#000000" stroke-width="1.0" stroke-linejoin="round" stroke-linecap="butt" d="m209.69817 421.64566l186.48817 0l0 47.275604l-186.48817 0z" fill-rule="evenodd"/><path fill="#000000" d="m225.94252 438.56284q2.21875 0 3.515625 1.078125q1.3125 1.078125 1.390625 3.140625l-1.671875 0q-0.15625 -1.359375 -1.0 -2.03125q-0.828125 -0.6875 -2.3125 -0.6875q-1.421875 0 -2.203125 0.59375q-0.78125 0.578125 -0.78125 1.671875q0 0.78125 0.65625 1.28125q0.671875 0.5 3.625 1.09375q2.125 0.4375 3.171875 1.34375q1.0625 0.90625 1.0625 2.5q0 1.859375 -1.515625 2.921875q-1.515625 1.046875 -3.6875 1.046875q-2.421875 0 -3.953125 -1.203125q-1.53125 -1.21875 -1.546875 -3.484375l1.6875 0q0.015625 1.515625 1.078125 2.359375q1.078125 0.84375 2.796875 0.84375q1.609375 0 2.484375 -0.625q0.890625 -0.625 0.890625 -1.796875q0 -0.953125 -0.8125 -1.515625q-0.8125 -0.578125 -2.9375 -1.0q-2.84375 -0.53125 -3.8125 -1.375q-0.953125 -0.859375 -0.953125 -2.25q0 -1.796875 1.359375 -2.84375q1.359375 -1.0625 3.46875 -1.0625zm8.932053 0.328125l0 5.09375l0.03125 0q0.34375 -0.78125 1.171875 -1.203125q0.828125 -0.4375 1.875 -0.4375q1.75 0 2.53125 0.890625q0.796875 0.890625 0.796875 2.546875l0 6.421875l-1.59375 0l0 -6.59375q0 -0.8125 -0.53125 -1.34375q-0.515625 -0.53125 -1.4375 -0.53125q-1.34375 0 -2.09375 0.828125q-0.75 0.8125 -0.75 2.125l0 5.515625l-1.59375 0l0 -13.3125l1.59375 0zm12.735092 3.453125q1.96875 0 2.78125 0.703125q0.828125 0.6875 0.828125 1.875q0 5.015625 0 5.5625q0 0.546875 0.5 0.546875q0.109375 0 0.234375 -0.03125q0.140625 -0.03125 0.25 -0.0625l0 1.234375q-0.21875 0.125 -0.5 0.1875q-0.28125 0.078125 -0.625 0.078125q-0.65625 0 -1.0 -0.375q-0.34375 -0.375 -0.34375 -1.125q-0.640625 0.75 -1.5 1.125q-0.84375 0.375 -1.90625 0.375q-1.484375 0 -2.34375 -0.703125q-0.84375 -0.71875 -0.84375 -2.015625q0 -1.296875 0.828125 -2.046875q0.828125 -0.765625 3.90625 -1.15625q1.03125 -0.140625 1.390625 -0.390625q0.375 -0.265625 0.375 -0.796875q0 -0.796875 -0.515625 -1.1875q-0.5 -0.40625 -1.625 -0.40625q-1.171875 0 -1.765625 0.453125q-0.59375 0.4375 -0.640625 1.375l-1.578125 0q0.078125 -1.609375 1.125 -2.40625q1.0625 -0.8125 2.96875 -0.8125zm-2.796875 7.265625q0 0.671875 0.484375 1.046875q0.5 0.375 1.390625 0.375q1.34375 0 2.140625 -0.65625q0.796875 -0.671875 0.796875 -1.5l0 -1.65625q-0.390625 0.28125 -1.03125 0.390625q-0.640625 0.09375 -1.703125 0.234375q-1.046875 0.15625 -1.5625 0.578125q-0.515625 0.421875 -0.515625 1.1875zm13.676712 -7.28125q0.046875 0 0.09375 0q0.046875 0 0.125 0.015625l0 1.671875q-1.796875 0 -2.65625 0.953125q-0.84376526 0.9375 -0.84376526 2.921875l0 4.3125l-1.578125 0l0 -9.640625l1.484375 0l0 2.03125l0.046875 0q0.546875 -1.15625 1.3593903 -1.703125q0.828125 -0.5625 1.96875 -0.5625zm5.0785522 0.015625q2.078125 0 3.21875 1.5q1.15625 1.484375 1.15625 3.828125l0 0.1875l-7.234375 0l0 0.109375q0 1.390625 0.796875 2.234375q0.8125 0.828125 2.21875 0.828125q1.046875 0 1.671875 -0.484375q0.625 -0.5 0.828125 -1.40625l1.5625 0q-0.328125 1.609375 -1.40625 2.453125q-1.078125 0.84375 -2.71875 0.84375q-1.515625 0 -2.578125 -0.6875q-1.046875 -0.6875 -1.546875 -1.90625q-0.5 -1.234375 -0.5 -2.515625q0 -2.140625 1.28125 -3.5625q1.296875 -1.421875 3.25 -1.421875zm-2.859375 4.109375l5.546875 0q-0.078125 -1.171875 -0.859375 -1.9375q-0.765625 -0.78125 -1.9375 -0.78125q-1.09375 0 -1.875 0.734375q-0.765625 0.734375 -0.875 1.984375zm17.489197 -7.5625l0 13.3125l-1.59375 0l0 -1.296875l-0.03125 0q-0.375 0.734375 -1.1875 1.140625q-0.8125 0.390625 -1.890625 0.390625q-2.015625 0 -3.234375 -1.40625q-1.203125 -1.40625 -1.203125 -3.671875q0 -2.234375 1.171875 -3.625q1.171875 -1.390625 3.21875 -1.390625q0.953125 0 1.796875 0.390625q0.859375 0.375 1.328125 1.109375l0.03125 0l0 -4.953125l1.59375 0zm-7.46875 8.5625q0 1.5625 0.8125 2.578125q0.8125 1.0 2.1875 1.0q1.390625 0 2.15625 -1.0q0.78125 -1.015625 0.78125 -2.640625q0 -1.640625 -0.796875 -2.640625q-0.78125 -1.015625 -2.265625 -1.015625q-1.359375 0 -2.125 1.0q-0.75 0.984375 -0.75 2.71875zm17.117249 -8.5625l0 11.8125l7.0625 0l0 1.5l-8.828125 0l0 -13.3125l1.765625 0zm10.031952 0l0 1.9375l-1.59375 0l0 -1.9375l1.59375 0zm0 3.671875l0 9.640625l-1.59375 0l0 -9.640625l1.59375 0zm4.0979614 -3.671875l0 4.984375l0.046875 0q0.375 -0.75 1.171875 -1.140625q0.796875 -0.390625 1.90625 -0.390625q2.0625 0 3.25 1.421875q1.1875 1.421875 1.1875 3.640625q0 2.25 -1.1875 3.640625q-1.171875 1.390625 -3.203125 1.390625q-0.90625 0 -1.765625 -0.375q-0.859375 -0.375 -1.359375 -1.140625l-0.046875 0l0 1.28125l-1.578125 0l0 -13.3125l1.578125 0zm-0.046875 8.484375q0 1.671875 0.8125 2.671875q0.8125 0.984375 2.234375 0.984375q1.375 0 2.125 -0.984375q0.75 -0.984375 0.75 -2.75q0 -1.546875 -0.796875 -2.546875q-0.796875 -1.015625 -2.1875 -1.015625q-1.40625 0 -2.171875 1.015625q-0.765625 1.015625 -0.765625 2.625zm14.277679 -5.046875q0.046875 0 0.09375 0q0.046875 0 0.125 0.015625l0 1.671875q-1.796875 0 -2.65625 0.953125q-0.84375 0.9375 -0.84375 2.921875l0 4.3125l-1.578125 0l0 -9.640625l1.484375 0l0 2.03125l0.046875 0q0.546875 -1.15625 1.359375 -1.703125q0.828125 -0.5625 1.96875 -0.5625zm4.9066772 0.015625q1.96875 0 2.78125 0.703125q0.828125 0.6875 0.828125 1.875q0 5.015625 0 5.5625q0 0.546875 0.5 0.546875q0.109375 0 0.234375 -0.03125q0.140625 -0.03125 0.25 -0.0625l0 1.234375q-0.21875 0.125 -0.5 0.1875q-0.28125 0.078125 -0.625 0.078125q-0.65625 0 -1.0 -0.375q-0.34375 -0.375 -0.34375 -1.125q-0.640625 0.75 -1.5 1.125q-0.84375 0.375 -1.90625 0.375q-1.484375 0 -2.34375 -0.703125q-0.84375 -0.71875 -0.84375 -2.015625q0 -1.296875 0.828125 -2.046875q0.828125 -0.765625 3.90625 -1.15625q1.03125 -0.140625 1.390625 -0.390625q0.375 -0.265625 0.375 -0.796875q0 -0.796875 -0.515625 -1.1875q-0.5 -0.40625 -1.625 -0.40625q-1.171875 0 -1.765625 0.453125q-0.59375 0.4375 -0.640625 1.375l-1.578125 0q0.078125 -1.609375 1.125 -2.40625q1.0625 -0.8125 2.96875 -0.8125zm-2.796875 7.265625q0 0.671875 0.484375 1.046875q0.5 0.375 1.390625 0.375q1.34375 0 2.140625 -0.65625q0.796875 -0.671875 0.796875 -1.5l0 -1.65625q-0.390625 0.28125 -1.03125 0.390625q-0.640625 0.09375 -1.703125 0.234375q-1.046875 0.15625 -1.5625 0.578125q-0.515625 0.421875 -0.515625 1.1875zm13.676697 -7.28125q0.046875 0 0.09375 0q0.046875 0 0.125 0.015625l0 1.671875q-1.796875 0 -2.65625 0.953125q-0.84375 0.9375 -0.84375 2.921875l0 4.3125l-1.578125 0l0 -9.640625l1.484375 0l0 2.03125l0.046875 0q0.546875 -1.15625 1.359375 -1.703125q0.828125 -0.5625 1.96875 -0.5625zm2.259552 0.234375l2.8125 7.875l0.046875 0l2.703125 -7.875l1.6875 0l-4.109375 10.671875q-0.640625 1.671875 -1.234375 2.25q-0.59375 0.578125 -1.65625 0.578125q-0.296875 0 -0.578125 -0.03125q-0.265625 -0.03125 -0.53125 -0.125l0 -1.46875q0.234375 0.078125 0.46875 0.140625q0.234375 0.078125 0.46875 0.078125q0.96875 0 1.34375 -0.96875q0.390625 -0.953125 0.609375 -1.53125l-3.828125 -9.59375l1.796875 0zm18.698914 -3.671875q3.03125 0 4.65625 1.609375q1.640625 1.59375 1.640625 4.734375q0 3.515625 -1.625 5.25q-1.609375 1.71875 -4.671875 1.71875l-4.671875 0l0 -13.3125l4.671875 0zm0.109375 11.8125q2.0 0 3.203125 -1.296875q1.21875 -1.296875 1.21875 -3.9375q0 -2.640625 -1.109375 -3.859375q-1.09375 -1.234375 -3.25 -1.234375l-3.078125 0l0 10.328125l3.015625 0zm12.042145 -8.359375q1.96875 0 2.78125 0.703125q0.828125 0.6875 0.828125 1.875q0 5.015625 0 5.5625q0 0.546875 0.5 0.546875q0.109375 0 0.234375 -0.03125q0.140625 -0.03125 0.25 -0.0625l0 1.234375q-0.21875 0.125 -0.5 0.1875q-0.28125 0.078125 -0.625 0.078125q-0.65625 0 -1.0 -0.375q-0.34375 -0.375 -0.34375 -1.125q-0.640625 0.75 -1.5 1.125q-0.84375 0.375 -1.90625 0.375q-1.484375 0 -2.34375 -0.703125q-0.84375 -0.71875 -0.84375 -2.015625q0 -1.296875 0.828125 -2.046875q0.828125 -0.765625 3.90625 -1.15625q1.03125 -0.140625 1.390625 -0.390625q0.375 -0.265625 0.375 -0.796875q0 -0.796875 -0.515625 -1.1875q-0.5 -0.40625 -1.625 -0.40625q-1.171875 0 -1.765625 0.453125q-0.59375 0.4375 -0.640625 1.375l-1.578125 0q0.078125 -1.609375 1.125 -2.40625q1.0625 -0.8125 2.96875 -0.8125zm-2.796875 7.265625q0 0.671875 0.484375 1.046875q0.5 0.375 1.390625 0.375q1.34375 0 2.140625 -0.65625q0.796875 -0.671875 0.796875 -1.5l0 -1.65625q-0.390625 0.28125 -1.03125 0.390625q-0.640625 0.09375 -1.703125 0.234375q-1.046875 0.15625 -1.5625 0.578125q-0.515625 0.421875 -0.515625 1.1875zm11.067322 -9.9375l0 2.890625l1.921875 0l0 1.390625l-1.921875 0l0 6.046875q0 0.71875 0.484375 0.765625q0.484375 0.03125 1.0 0.03125l0.4375 0l0 1.40625l-1.296875 0q-1.3125 0 -1.765625 -0.453125q-0.4375 -0.46875 -0.4375 -1.5625l0 -6.234375l-1.65625 0l0 -1.390625l1.65625 0l0 -2.890625l1.578125 0zm7.625641 2.671875q1.96875 0 2.78125 0.703125q0.828125 0.6875 0.828125 1.875q0 5.015625 0 5.5625q0 0.546875 0.5 0.546875q0.109375 0 0.234375 -0.03125q0.140625 -0.03125 0.25 -0.0625l0 1.234375q-0.21875 0.125 -0.5 0.1875q-0.28125 0.078125 -0.625 0.078125q-0.65625 0 -1.0 -0.375q-0.34375 -0.375 -0.34375 -1.125q-0.640625 0.75 -1.5 1.125q-0.84375 0.375 -1.90625 0.375q-1.484375 0 -2.34375 -0.703125q-0.84375 -0.71875 -0.84375 -2.015625q0 -1.296875 0.828125 -2.046875q0.828125 -0.765625 3.90625 -1.15625q1.03125 -0.140625 1.390625 -0.390625q0.375 -0.265625 0.375 -0.796875q0 -0.796875 -0.515625 -1.1875q-0.5 -0.40625 -1.625 -0.40625q-1.171875 0 -1.765625 0.453125q-0.59375 0.4375 -0.640625 1.375l-1.578125 0q0.078125 -1.609375 1.125 -2.40625q1.0625 -0.8125 2.96875 -0.8125zm-2.796875 7.265625q0 0.671875 0.484375 1.046875q0.5 0.375 1.390625 0.375q1.34375 0 2.140625 -0.65625q0.796875 -0.671875 0.796875 -1.5l0 -1.65625q-0.390625 0.28125 -1.03125 0.390625q-0.640625 0.09375 -1.703125 0.234375q-1.046875 0.15625 -1.5625 0.578125q-0.515625 0.421875 -0.515625 1.1875z" fill-rule="nonzero"/><path fill="#fff2cc" d="m209.69817 374.3701l186.48817 0l0 47.275574l-186.48817 0z" fill-rule="evenodd"/><path stroke="#000000" stroke-width="1.0" stroke-linejoin="round" stroke-linecap="butt" d="m209.69817 374.3701l186.48817 0l0 47.275574l-186.48817 0z" fill-rule="evenodd"/><path fill="#000000" d="m226.22507 391.28723q2.21875 0 3.515625 1.078125q1.3125 1.078125 1.390625 3.140625l-1.671875 0q-0.15625 -1.359375 -1.0 -2.03125q-0.828125 -0.6875 -2.3125 -0.6875q-1.421875 0 -2.203125 0.59375q-0.78125 0.578125 -0.78125 1.671875q0 0.78125 0.65625 1.28125q0.671875 0.5 3.625 1.09375q2.125 0.4375 3.171875 1.34375q1.0625 0.90625 1.0625 2.5q0 1.859375 -1.515625 2.921875q-1.515625 1.046875 -3.6875 1.046875q-2.421875 0 -3.953125 -1.203125q-1.53125 -1.21875 -1.546875 -3.484375l1.6875 0q0.015625 1.515625 1.078125 2.359375q1.078125 0.84375 2.796875 0.84375q1.609375 0 2.484375 -0.625q0.890625 -0.625 0.890625 -1.796875q0 -0.953125 -0.8125 -1.515625q-0.8125 -0.578125 -2.9375 -1.0q-2.84375 -0.53125 -3.8125 -1.375q-0.953125 -0.859375 -0.953125 -2.25q0 -1.796875 1.359375 -2.84375q1.359375 -1.0625 3.46875 -1.0625zm8.932053 0.328125l0 5.09375l0.03125 0q0.34375 -0.78125 1.171875 -1.203125q0.828125 -0.4375 1.875 -0.4375q1.75 0 2.53125 0.890625q0.796875 0.890625 0.796875 2.546875l0 6.421875l-1.59375 0l0 -6.59375q0 -0.8125 -0.53125 -1.34375q-0.515625 -0.53125 -1.4375 -0.53125q-1.34375 0 -2.09375 0.828125q-0.75 0.8125 -0.75 2.125l0 5.515625l-1.59375 0l0 -13.3125l1.59375 0zm12.735092 3.453125q1.96875 0 2.78125 0.703125q0.828125 0.6875 0.828125 1.875q0 5.015625 0 5.5625q0 0.546875 0.5 0.546875q0.109375 0 0.234375 -0.03125q0.140625 -0.03125 0.25 -0.0625l0 1.234375q-0.21875 0.125 -0.5 0.1875q-0.28125 0.078125 -0.625 0.078125q-0.65625 0 -1.0 -0.375q-0.34375 -0.375 -0.34375 -1.125q-0.640625 0.75 -1.5 1.125q-0.84375 0.375 -1.90625 0.375q-1.484375 0 -2.34375 -0.703125q-0.84375 -0.71875 -0.84375 -2.015625q0 -1.296875 0.828125 -2.046875q0.828125 -0.765625 3.90625 -1.15625q1.03125 -0.140625 1.390625 -0.390625q0.375 -0.265625 0.375 -0.796875q0 -0.796875 -0.515625 -1.1875q-0.5 -0.40625 -1.625 -0.40625q-1.171875 0 -1.765625 0.453125q-0.59375 0.4375 -0.640625 1.375l-1.578125 0q0.078125 -1.609375 1.125 -2.40625q1.0625 -0.8125 2.96875 -0.8125zm-2.796875 7.265625q0 0.671875 0.484375 1.046875q0.5 0.375 1.390625 0.375q1.34375 0 2.140625 -0.65625q0.796875 -0.671875 0.796875 -1.5l0 -1.65625q-0.390625 0.28125 -1.03125 0.390625q-0.640625 0.09375 -1.703125 0.234375q-1.046875 0.15625 -1.5625 0.578125q-0.515625 0.421875 -0.515625 1.1875zm13.676697 -7.28125q0.046875 0 0.09375 0q0.046875 0 0.125 0.015625l0 1.671875q-1.796875 0 -2.65625 0.953125q-0.84375 0.9375 -0.84375 2.921875l0 4.3125l-1.578125 0l0 -9.640625l1.484375 0l0 2.03125l0.046875 0q0.546875 -1.15625 1.359375 -1.703125q0.828125 -0.5625 1.96875 -0.5625zm5.078583 0.015625q2.078125 0 3.21875 1.5q1.15625 1.484375 1.15625 3.828125l0 0.1875l-7.234375 0l0 0.109375q0 1.390625 0.796875 2.234375q0.8125 0.828125 2.21875 0.828125q1.046875 0 1.671875 -0.484375q0.625 -0.5 0.828125 -1.40625l1.5625 0q-0.328125 1.609375 -1.40625 2.453125q-1.078125 0.84375 -2.71875 0.84375q-1.515625 0 -2.578125 -0.6875q-1.046875 -0.6875 -1.546875 -1.90625q-0.5 -1.234375 -0.5 -2.515625q0 -2.140625 1.28125 -3.5625q1.296875 -1.421875 3.25 -1.421875zm-2.859375 4.109375l5.546875 0q-0.078125 -1.171875 -0.859375 -1.9375q-0.765625 -0.78125 -1.9375 -0.78125q-1.09375 0 -1.875 0.734375q-0.765625 0.734375 -0.875 1.984375zm17.489197 -7.5625l0 13.3125l-1.59375 0l0 -1.296875l-0.03125 0q-0.375 0.734375 -1.1875 1.140625q-0.8125 0.390625 -1.890625 0.390625q-2.015625 0 -3.234375 -1.40625q-1.203125 -1.40625 -1.203125 -3.671875q0 -2.234375 1.171875 -3.625q1.171875 -1.390625 3.21875 -1.390625q0.953125 0 1.796875 0.390625q0.859375 0.375 1.328125 1.109375l0.03125 0l0 -4.953125l1.59375 0zm-7.46875 8.5625q0 1.5625 0.8125 2.578125q0.8125 1.0 2.1875 1.0q1.390625 0 2.15625 -1.0q0.78125 -1.015625 0.78125 -2.640625q0 -1.640625 -0.796875 -2.640625q-0.78125 -1.015625 -2.265625 -1.015625q-1.359375 0 -2.125 1.0q-0.75 0.984375 -0.75 2.71875zm17.117218 -8.5625l0 11.8125l7.0625 0l0 1.5l-8.828125 0l0 -13.3125l1.765625 0zm10.031982 0l0 1.9375l-1.59375 0l0 -1.9375l1.59375 0zm0 3.671875l0 9.640625l-1.59375 0l0 -9.640625l1.59375 0zm4.097931 -3.671875l0 4.984375l0.046875 0q0.375 -0.75 1.171875 -1.140625q0.796875 -0.390625 1.90625 -0.390625q2.0625 0 3.25 1.421875q1.1875 1.421875 1.1875 3.640625q0 2.25 -1.1875 3.640625q-1.171875 1.390625 -3.203125 1.390625q-0.90625 0 -1.765625 -0.375q-0.859375 -0.375 -1.359375 -1.140625l-0.046875 0l0 1.28125l-1.578125 0l0 -13.3125l1.578125 0zm-0.046875 8.484375q0 1.671875 0.8125 2.671875q0.8125 0.984375 2.234375 0.984375q1.375 0 2.125 -0.984375q0.75 -0.984375 0.75 -2.75q0 -1.546875 -0.796875 -2.546875q-0.796875 -1.015625 -2.1875 -1.015625q-1.40625 0 -2.171875 1.015625q-0.765625 1.015625 -0.765625 2.625zm14.277679 -5.046875q0.046875 0 0.09375 0q0.046875 0 0.125 0.015625l0 1.671875q-1.796875 0 -2.65625 0.953125q-0.84375 0.9375 -0.84375 2.921875l0 4.3125l-1.578125 0l0 -9.640625l1.484375 0l0 2.03125l0.046875 0q0.546875 -1.15625 1.359375 -1.703125q0.828125 -0.5625 1.96875 -0.5625zm4.906708 0.015625q1.96875 0 2.78125 0.703125q0.828125 0.6875 0.828125 1.875q0 5.015625 0 5.5625q0 0.546875 0.5 0.546875q0.109375 0 0.234375 -0.03125q0.140625 -0.03125 0.25 -0.0625l0 1.234375q-0.21875 0.125 -0.5 0.1875q-0.28125 0.078125 -0.625 0.078125q-0.65625 0 -1.0 -0.375q-0.34375 -0.375 -0.34375 -1.125q-0.640625 0.75 -1.5 1.125q-0.84375 0.375 -1.90625 0.375q-1.484375 0 -2.34375 -0.703125q-0.84375 -0.71875 -0.84375 -2.015625q0 -1.296875 0.828125 -2.046875q0.828125 -0.765625 3.90625 -1.15625q1.03125 -0.140625 1.390625 -0.390625q0.375 -0.265625 0.375 -0.796875q0 -0.796875 -0.515625 -1.1875q-0.5 -0.40625 -1.625 -0.40625q-1.171875 0 -1.765625 0.453125q-0.59375 0.4375 -0.640625 1.375l-1.578125 0q0.078125 -1.609375 1.125 -2.40625q1.0625 -0.8125 2.96875 -0.8125zm-2.796875 7.265625q0 0.671875 0.484375 1.046875q0.5 0.375 1.390625 0.375q1.34375 0 2.140625 -0.65625q0.796875 -0.671875 0.796875 -1.5l0 -1.65625q-0.390625 0.28125 -1.03125 0.390625q-0.640625 0.09375 -1.703125 0.234375q-1.046875 0.15625 -1.5625 0.578125q-0.515625 0.421875 -0.515625 1.1875zm13.676697 -7.28125q0.046875 0 0.09375 0q0.046875 0 0.125 0.015625l0 1.671875q-1.796875 0 -2.65625 0.953125q-0.84375 0.9375 -0.84375 2.921875l0 4.3125l-1.578125 0l0 -9.640625l1.484375 0l0 2.03125l0.046875 0q0.546875 -1.15625 1.359375 -1.703125q0.828125 -0.5625 1.96875 -0.5625zm2.259552 0.234375l2.8125 7.875l0.046875 0l2.7030945 -7.875l1.6875 0l-4.1093445 10.671875q-0.640625 1.671875 -1.234375 2.25q-0.59375 0.578125 -1.65625 0.578125q-0.296875 0 -0.578125 -0.03125q-0.265625 -0.03125 -0.53125 -0.125l0 -1.46875q0.234375 0.078125 0.46875 0.140625q0.234375 0.078125 0.46875 0.078125q0.96875 0 1.34375 -0.96875q0.390625 -0.953125 0.609375 -1.53125l-3.828125 -9.59375l1.796875 0zm19.730164 -4.0q2.359375 0 3.859375 1.140625q1.515625 1.125 1.859375 3.28125l-1.765625 0q-0.265625 -1.40625 -1.3125 -2.15625q-1.03125 -0.765625 -2.65625 -0.765625q-2.125 0 -3.34375 1.578125q-1.21875 1.578125 -1.21875 4.0625q0 2.296875 1.25 3.8125q1.265625 1.515625 3.3125 1.515625q1.921875 0 3.09375 -1.15625q1.1875 -1.15625 1.1875 -2.984375l0 -0.203125l-4.265625 0l0 -1.5l5.84375 0l0 7.015625l-1.109375 0l-0.46875 -1.65625q-0.734375 0.953125 -1.859375 1.46875q-1.125 0.5 -2.421875 0.5q-2.71875 0 -4.53125 -1.953125q-1.8125 -1.953125 -1.8125 -4.765625q0 -3.15625 1.703125 -5.1875q1.71875 -2.046875 4.65625 -2.046875zm14.093658 0q1.9375 0 3.375 0.90625q1.4375 0.890625 2.21875 2.515625q0.78125 1.625 0.78125 3.5625q0 1.953125 -0.78125 3.578125q-0.765625 1.609375 -2.21875 2.5q-1.453125 0.890625 -3.375 0.890625q-1.921875 0 -3.375 -0.890625q-1.4375 -0.890625 -2.234375 -2.5q-0.78125 -1.625 -0.78125 -3.578125q0 -3.03125 1.734375 -5.0q1.75 -1.984375 4.65625 -1.984375zm-4.609375 6.984375q0 1.484375 0.53125 2.765625q0.546875 1.28125 1.59375 2.0q1.0625 0.71875 2.484375 0.71875q2.140625 0 3.375 -1.546875q1.234375 -1.546875 1.234375 -3.9375q0 -2.375 -1.234375 -3.921875q-1.21875 -1.5625 -3.40625 -1.5625q-2.140625 0 -3.359375 1.5625q-1.21875 1.5625 -1.21875 3.921875zm21.821503 -6.65625l0 1.484375l-4.4375 0l0 11.828125l-1.765625 0l0 -11.828125l-4.453125 0l0 -1.484375l10.65625 0z" fill-rule="nonzero"/><path fill="#fff2cc" d="m209.69817 327.09448l186.48817 0l0 47.275604l-186.48817 0z" fill-rule="evenodd"/><path stroke="#000000" stroke-width="1.0" stroke-linejoin="round" stroke-linecap="butt" d="m209.69817 327.09448l186.48817 0l0 47.275604l-186.48817 0z" fill-rule="evenodd"/><path fill="#000000" d="m241.03284 344.33978l5.203125 13.3125l-1.953125 0l-1.453125 -4.015625l-5.640625 0l-1.5 4.015625l-1.8125 0l5.203125 -13.3125l1.953125 0zm-1.03125 1.59375l-2.25 6.21875l4.515625 0l-2.21875 -6.21875l-0.046875 0zm12.041428 1.859375q2.0625 0 3.25 1.421875q1.1874847 1.421875 1.1874847 3.640625q0 2.25 -1.1874847 3.640625q-1.171875 1.390625 -3.203125 1.390625q-0.90625 0 -1.765625 -0.375q-0.859375 -0.375 -1.359375 -1.140625l-0.046875 0l0 4.984375l-1.578125 0l0 -13.34375l1.578125 0l0 1.3125l0.046875 0q0.375 -0.75 1.171875 -1.140625q0.8125 -0.390625 1.90625 -0.390625zm-3.171875 5.03125q0 1.671875 0.8125 2.671875q0.8125 0.984375 2.234375 0.984375q1.375 0 2.125 -0.984375q0.75 -0.984375 0.75 -2.75q0 -1.546875 -0.796875 -2.546875q-0.796875 -1.015625 -2.1875 -1.015625q-1.40625 0 -2.171875 1.015625q-0.765625 1.015625 -0.765625 2.625zm14.230789 -5.03125q2.0625 0 3.25 1.421875q1.1875 1.421875 1.1875 3.640625q0 2.25 -1.1875 3.640625q-1.171875 1.390625 -3.203125 1.390625q-0.90625 0 -1.765625 -0.375q-0.859375 -0.375 -1.359375 -1.140625l-0.046875 0l0 4.984375l-1.578125 0l0 -13.34375l1.578125 0l0 1.3125l0.046875 0q0.375 -0.75 1.171875 -1.140625q0.8125 -0.390625 1.90625 -0.390625zm-3.171875 5.03125q0 1.671875 0.8125 2.671875q0.8125 0.984375 2.234375 0.984375q1.375 0 2.125 -0.984375q0.75 -0.984375 0.75 -2.75q0 -1.546875 -0.796875 -2.546875q-0.796875 -1.015625 -2.1875 -1.015625q-1.40625 0 -2.171875 1.015625q-0.765625 1.015625 -0.765625 2.625zm11.152679 -8.484375l0 13.3125l-1.59375 0l0 -13.3125l1.59375 0zm4.1448364 0l0 1.9375l-1.59375 0l0 -1.9375l1.59375 0zm0 3.671875l0 9.640625l-1.59375 0l0 -9.640625l1.59375 0zm6.488556 -0.21875q1.765625 0 2.859375 0.84375q1.109375 0.828125 1.296875 2.46875l-1.625 0q-0.203125 -0.9375 -0.828125 -1.421875q-0.625 -0.5 -1.5625 -0.5q-1.484375 0 -2.25 0.984375q-0.765625 0.984375 -0.765625 2.78125q0 1.609375 0.75 2.578125q0.765625 0.953125 2.078125 0.953125q1.15625 0 1.8125 -0.625q0.671875 -0.625 0.828125 -1.734375l1.625 0q-0.265625 1.8125 -1.359375 2.796875q-1.09375 0.96875 -2.890625 0.96875q-2.109375 0 -3.3125 -1.328125q-1.203125 -1.328125 -1.203125 -3.609375q0 -2.359375 1.21875 -3.75q1.21875 -1.40625 3.328125 -1.40625zm9.942322 0q1.96875 0 2.78125 0.703125q0.828125 0.6875 0.828125 1.875q0 5.015625 0 5.5625q0 0.546875 0.5 0.546875q0.109375 0 0.234375 -0.03125q0.140625 -0.03125 0.25 -0.0625l0 1.234375q-0.21875 0.125 -0.5 0.1875q-0.28125 0.078125 -0.625 0.078125q-0.65625 0 -1.0 -0.375q-0.34375 -0.375 -0.34375 -1.125q-0.640625 0.75 -1.5 1.125q-0.84375 0.375 -1.90625 0.375q-1.484375 0 -2.34375 -0.703125q-0.84375 -0.71875 -0.84375 -2.015625q0 -1.296875 0.828125 -2.046875q0.828125 -0.765625 3.90625 -1.15625q1.03125 -0.140625 1.390625 -0.390625q0.375 -0.265625 0.375 -0.796875q0 -0.796875 -0.515625 -1.1875q-0.5 -0.40625 -1.625 -0.40625q-1.171875 0 -1.765625 0.453125q-0.59375 0.4375 -0.640625 1.375l-1.578125 0q0.078125 -1.609375 1.125 -2.40625q1.0625 -0.8125 2.96875 -0.8125zm-2.796875 7.265625q0 0.671875 0.484375 1.046875q0.5 0.375 1.390625 0.375q1.34375 0 2.140625 -0.65625q0.796875 -0.671875 0.796875 -1.5l0 -1.65625q-0.390625 0.28125 -1.03125 0.390625q-0.640625 0.09375 -1.703125 0.234375q-1.046875 0.15625 -1.5625 0.578125q-0.515625 0.421875 -0.515625 1.1875zm11.067322 -9.9375l0 2.890625l1.921875 0l0 1.390625l-1.921875 0l0 6.046875q0 0.71875 0.484375 0.765625q0.484375 0.03125 1.0 0.03125l0.4375 0l0 1.40625l-1.296875 0q-1.3125 0 -1.765625 -0.453125q-0.4375 -0.46875 -0.4375 -1.5625l0 -6.234375l-1.65625 0l0 -1.390625l1.65625 0l0 -2.890625l1.578125 0zm5.360016 -0.78125l0 1.9375l-1.59375 0l0 -1.9375l1.59375 0zm0 3.671875l0 9.640625l-1.59375 0l0 -9.640625l1.59375 0zm6.629181 -0.21875q2.1875 0 3.421875 1.40625q1.25 1.40625 1.25 3.640625q0 2.25 -1.28125 3.65625q-1.265625 1.390625 -3.390625 1.390625q-2.09375 0 -3.390625 -1.375q-1.296875 -1.375 -1.296875 -3.671875q0 -2.296875 1.265625 -3.671875q1.265625 -1.375 3.421875 -1.375zm-3.015625 5.046875q0 1.65625 0.84375 2.65625q0.859375 0.984375 2.171875 0.984375q1.296875 0 2.140625 -0.984375q0.859375 -1.0 0.859375 -2.65625q0 -1.640625 -0.84375 -2.640625q-0.84375 -1.015625 -2.171875 -1.015625q-1.28125 0 -2.140625 0.984375q-0.859375 0.984375 -0.859375 2.671875zm14.228394 -5.046875q1.75 0 2.53125 0.890625q0.796875 0.890625 0.796875 2.546875l0 6.421875l-1.59375 0l0 -6.59375q0 -0.8125 -0.53125 -1.34375q-0.515625 -0.53125 -1.4375 -0.53125q-1.34375 0 -2.09375 0.828125q-0.75 0.8125 -0.75 2.125l0 5.515625l-1.59375 0l0 -9.640625l1.5 0l0 1.53125l0.03125 0q0.53125 -0.90625 1.296875 -1.328125q0.78125 -0.421875 1.84375 -0.421875zm15.824646 -3.453125q3.03125 0 4.65625 1.609375q1.640625 1.59375 1.640625 4.734375q0 3.515625 -1.625 5.25q-1.609375 1.71875 -4.671875 1.71875l-4.671875 0l0 -13.3125l4.671875 0zm0.109375 11.8125q2.0 0 3.203125 -1.296875q1.21875 -1.296875 1.21875 -3.9375q0 -2.640625 -1.109375 -3.859375q-1.09375 -1.234375 -3.25 -1.234375l-3.078125 0l0 10.328125l3.015625 0zm12.042145 -8.359375q1.96875 0 2.78125 0.703125q0.828125 0.6875 0.828125 1.875q0 5.015625 0 5.5625q0 0.546875 0.5 0.546875q0.109375 0 0.234375 -0.03125q0.140625 -0.03125 0.25 -0.0625l0 1.234375q-0.21875 0.125 -0.5 0.1875q-0.28125 0.078125 -0.625 0.078125q-0.65625 0 -1.0 -0.375q-0.34375 -0.375 -0.34375 -1.125q-0.640625 0.75 -1.5 1.125q-0.84375 0.375 -1.90625 0.375q-1.484375 0 -2.34375 -0.703125q-0.84375 -0.71875 -0.84375 -2.015625q0 -1.296875 0.828125 -2.046875q0.828125 -0.765625 3.90625 -1.15625q1.03125 -0.140625 1.390625 -0.390625q0.375 -0.265625 0.375 -0.796875q0 -0.796875 -0.515625 -1.1875q-0.5 -0.40625 -1.625 -0.40625q-1.171875 0 -1.765625 0.453125q-0.59375 0.4375 -0.640625 1.375l-1.578125 0q0.078125 -1.609375 1.125 -2.40625q1.0625 -0.8125 2.96875 -0.8125zm-2.796875 7.265625q0 0.671875 0.484375 1.046875q0.5 0.375 1.390625 0.375q1.34375 0 2.140625 -0.65625q0.796875 -0.671875 0.796875 -1.5l0 -1.65625q-0.390625 0.28125 -1.03125 0.390625q-0.640625 0.09375 -1.703125 0.234375q-1.046875 0.15625 -1.5625 0.578125q-0.515625 0.421875 -0.515625 1.1875zm11.067322 -9.9375l0 2.890625l1.921875 0l0 1.390625l-1.921875 0l0 6.046875q0 0.71875 0.484375 0.765625q0.484375 0.03125 1.0 0.03125l0.4375 0l0 1.40625l-1.296875 0q-1.3125 0 -1.765625 -0.453125q-0.4375 -0.46875 -0.4375 -1.5625l0 -6.234375l-1.65625 0l0 -1.390625l1.65625 0l0 -2.890625l1.578125 0zm7.625641 2.671875q1.96875 0 2.78125 0.703125q0.828125 0.6875 0.828125 1.875q0 5.015625 0 5.5625q0 0.546875 0.5 0.546875q0.109375 0 0.234375 -0.03125q0.140625 -0.03125 0.25 -0.0625l0 1.234375q-0.21875 0.125 -0.5 0.1875q-0.28125 0.078125 -0.625 0.078125q-0.65625 0 -1.0 -0.375q-0.34375 -0.375 -0.34375 -1.125q-0.640625 0.75 -1.5 1.125q-0.84375 0.375 -1.90625 0.375q-1.484375 0 -2.34375 -0.703125q-0.84375 -0.71875 -0.84375 -2.015625q0 -1.296875 0.828125 -2.046875q0.828125 -0.765625 3.90625 -1.15625q1.03125 -0.140625 1.390625 -0.390625q0.375 -0.265625 0.375 -0.796875q0 -0.796875 -0.515625 -1.1875q-0.5 -0.40625 -1.625 -0.40625q-1.171875 0 -1.765625 0.453125q-0.59375 0.4375 -0.640625 1.375l-1.578125 0q0.078125 -1.609375 1.125 -2.40625q1.0625 -0.8125 2.96875 -0.8125zm-2.796875 7.265625q0 0.671875 0.484375 1.046875q0.5 0.375 1.390625 0.375q1.34375 0 2.140625 -0.65625q0.796875 -0.671875 0.796875 -1.5l0 -1.65625q-0.390625 0.28125 -1.03125 0.390625q-0.640625 0.09375 -1.703125 0.234375q-1.046875 0.15625 -1.5625 0.578125q-0.515625 0.421875 -0.515625 1.1875z" fill-rule="nonzero"/><path fill="#fff2cc" d="m209.69817 279.8189l186.48817 0l0 47.275574l-186.48817 0z" fill-rule="evenodd"/><path stroke="#000000" stroke-width="1.0" stroke-linejoin="round" stroke-linecap="butt" d="m209.69817 279.8189l186.48817 0l0 47.275574l-186.48817 0z" fill-rule="evenodd"/><path fill="#000000" d="m241.31538 297.06418l5.203125 13.3125l-1.953125 0l-1.453125 -4.015625l-5.640625 0l-1.5 4.015625l-1.8125 0l5.203125 -13.3125l1.953125 0zm-1.03125 1.59375l-2.25 6.21875l4.515625 0l-2.21875 -6.21875l-0.046875 0zm12.041428 1.859375q2.0625 0 3.25 1.421875q1.1875 1.421875 1.1875 3.640625q0 2.25 -1.1875 3.640625q-1.171875 1.390625 -3.203125 1.390625q-0.90625 0 -1.765625 -0.375q-0.859375 -0.375 -1.359375 -1.140625l-0.046875 0l0 4.984375l-1.578125 0l0 -13.34375l1.578125 0l0 1.3125l0.046875 0q0.375 -0.75 1.171875 -1.140625q0.8125 -0.390625 1.90625 -0.390625zm-3.171875 5.03125q0 1.671875 0.8125 2.671875q0.8125 0.984375 2.234375 0.984375q1.375 0 2.125 -0.984375q0.75 -0.984375 0.75 -2.75q0 -1.546875 -0.796875 -2.546875q-0.796875 -1.015625 -2.1875 -1.015625q-1.40625 0 -2.171875 1.015625q-0.765625 1.015625 -0.765625 2.625zm14.230804 -5.03125q2.0625 0 3.25 1.421875q1.1875 1.421875 1.1875 3.640625q0 2.25 -1.1875 3.640625q-1.171875 1.390625 -3.203125 1.390625q-0.90625 0 -1.765625 -0.375q-0.859375 -0.375 -1.359375 -1.140625l-0.046875 0l0 4.984375l-1.578125 0l0 -13.34375l1.578125 0l0 1.3125l0.046875 0q0.375 -0.75 1.171875 -1.140625q0.8125 -0.390625 1.90625 -0.390625zm-3.171875 5.03125q0 1.671875 0.8125 2.671875q0.8125 0.984375 2.234375 0.984375q1.375 0 2.125 -0.984375q0.75 -0.984375 0.75 -2.75q0 -1.546875 -0.796875 -2.546875q-0.796875 -1.015625 -2.1875 -1.015625q-1.40625 0 -2.171875 1.015625q-0.765625 1.015625 -0.765625 2.625zm11.152679 -8.484375l0 13.3125l-1.59375 0l0 -13.3125l1.59375 0zm4.144806 0l0 1.9375l-1.59375 0l0 -1.9375l1.59375 0zm0 3.671875l0 9.640625l-1.59375 0l0 -9.640625l1.59375 0zm6.4885864 -0.21875q1.765625 0 2.859375 0.84375q1.109375 0.828125 1.296875 2.46875l-1.625 0q-0.203125 -0.9375 -0.828125 -1.421875q-0.625 -0.5 -1.5625 -0.5q-1.484375 0 -2.25 0.984375q-0.765625 0.984375 -0.765625 2.78125q0 1.609375 0.75 2.578125q0.765625 0.953125 2.078125 0.953125q1.15625 0 1.8125 -0.625q0.671875 -0.625 0.828125 -1.734375l1.625 0q-0.265625 1.8125 -1.359375 2.796875q-1.09375 0.96875 -2.890625 0.96875q-2.109375 0 -3.3125 -1.328125q-1.203125 -1.328125 -1.203125 -3.609375q0 -2.359375 1.21875 -3.75q1.21875 -1.40625 3.328125 -1.40625zm9.942322 0q1.96875 0 2.78125 0.703125q0.828125 0.6875 0.828125 1.875q0 5.015625 0 5.5625q0 0.546875 0.5 0.546875q0.109375 0 0.234375 -0.03125q0.140625 -0.03125 0.25 -0.0625l0 1.234375q-0.21875 0.125 -0.5 0.1875q-0.28125 0.078125 -0.625 0.078125q-0.65625 0 -1.0 -0.375q-0.34375 -0.375 -0.34375 -1.125q-0.640625 0.75 -1.5 1.125q-0.84375 0.375 -1.90625 0.375q-1.484375 0 -2.34375 -0.703125q-0.84375 -0.71875 -0.84375 -2.015625q0 -1.296875 0.828125 -2.046875q0.828125 -0.765625 3.90625 -1.15625q1.03125 -0.140625 1.390625 -0.390625q0.375 -0.265625 0.375 -0.796875q0 -0.796875 -0.515625 -1.1875q-0.5 -0.40625 -1.625 -0.40625q-1.171875 0 -1.765625 0.453125q-0.59375 0.4375 -0.640625 1.375l-1.578125 0q0.078125 -1.609375 1.125 -2.40625q1.0625 -0.8125 2.96875 -0.8125zm-2.796875 7.265625q0 0.671875 0.484375 1.046875q0.5 0.375 1.390625 0.375q1.34375 0 2.140625 -0.65625q0.796875 -0.671875 0.796875 -1.5l0 -1.65625q-0.390625 0.28125 -1.03125 0.390625q-0.640625 0.09375 -1.703125 0.234375q-1.046875 0.15625 -1.5625 0.578125q-0.515625 0.421875 -0.515625 1.1875zm11.067322 -9.9375l0 2.890625l1.921875 0l0 1.390625l-1.921875 0l0 6.046875q0 0.71875 0.484375 0.765625q0.484375 0.03125 1.0 0.03125l0.4375 0l0 1.40625l-1.296875 0q-1.3125 0 -1.765625 -0.453125q-0.4375 -0.46875 -0.4375 -1.5625l0 -6.234375l-1.65625 0l0 -1.390625l1.65625 0l0 -2.890625l1.578125 0zm5.3599854 -0.78125l0 1.9375l-1.59375 0l0 -1.9375l1.59375 0zm0 3.671875l0 9.640625l-1.59375 0l0 -9.640625l1.59375 0zm6.6292114 -0.21875q2.1875 0 3.421875 1.40625q1.25 1.40625 1.25 3.640625q0 2.25 -1.28125 3.65625q-1.265625 1.390625 -3.390625 1.390625q-2.09375 0 -3.390625 -1.375q-1.296875 -1.375 -1.296875 -3.671875q0 -2.296875 1.265625 -3.671875q1.265625 -1.375 3.421875 -1.375zm-3.015625 5.046875q0 1.65625 0.84375 2.65625q0.859375 0.984375 2.171875 0.984375q1.296875 0 2.140625 -0.984375q0.859375 -1.0 0.859375 -2.65625q0 -1.640625 -0.84375 -2.640625q-0.84375 -1.015625 -2.171875 -1.015625q-1.28125 0 -2.140625 0.984375q-0.859375 0.984375 -0.859375 2.671875zm14.228394 -5.046875q1.75 0 2.53125 0.890625q0.796875 0.890625 0.796875 2.546875l0 6.421875l-1.59375 0l0 -6.59375q0 -0.8125 -0.53125 -1.34375q-0.515625 -0.53125 -1.4375 -0.53125q-1.34375 0 -2.09375 0.828125q-0.75 0.8125 -0.75 2.125l0 5.515625l-1.59375 0l0 -9.640625l1.5 0l0 1.53125l0.03125 0q0.53125 -0.90625 1.296875 -1.328125q0.78125 -0.421875 1.84375 -0.421875zm16.855896 -3.78125q2.359375 0 3.859375 1.140625q1.515625 1.125 1.859375 3.28125l-1.765625 0q-0.265625 -1.40625 -1.3125 -2.15625q-1.03125 -0.765625 -2.65625 -0.765625q-2.125 0 -3.34375 1.578125q-1.21875 1.578125 -1.21875 4.0625q0 2.296875 1.25 3.8125q1.265625 1.515625 3.3125 1.515625q1.921875 0 3.09375 -1.15625q1.1875 -1.15625 1.1875 -2.984375l0 -0.203125l-4.265625 0l0 -1.5l5.84375 0l0 7.015625l-1.109375 0l-0.46875 -1.65625q-0.734375 0.953125 -1.859375 1.46875q-1.125 0.5 -2.421875 0.5q-2.71875 0 -4.53125 -1.953125q-1.8125 -1.953125 -1.8125 -4.765625q0 -3.15625 1.703125 -5.1875q1.71875 -2.046875 4.65625 -2.046875zm14.093658 0q1.9375 0 3.375 0.90625q1.4375 0.890625 2.21875 2.515625q0.78125 1.625 0.78125 3.5625q0 1.953125 -0.78125 3.578125q-0.765625 1.609375 -2.21875 2.5q-1.453125 0.890625 -3.375 0.890625q-1.921875 0 -3.375 -0.890625q-1.4375 -0.890625 -2.234375 -2.5q-0.78125 -1.625 -0.78125 -3.578125q0 -3.03125 1.734375 -5.0q1.75 -1.984375 4.65625 -1.984375zm-4.609375 6.984375q0 1.484375 0.53125 2.765625q0.546875 1.28125 1.59375 2.0q1.0625 0.71875 2.484375 0.71875q2.140625 0 3.375 -1.546875q1.234375 -1.546875 1.234375 -3.9375q0 -2.375 -1.234375 -3.921875q-1.21875 -1.5625 -3.40625 -1.5625q-2.140625 0 -3.359375 1.5625q-1.21875 1.5625 -1.21875 3.921875zm21.821503 -6.65625l0 1.484375l-4.4375 0l0 11.828125l-1.765625 0l0 -11.828125l-4.453125 0l0 -1.484375l10.65625 0z" fill-rule="nonzero"/><path fill="#000000" fill-opacity="0.0" d="m209.69817 215.08661l186.48817 0l0 64.72443l-186.48817 0z" fill-rule="evenodd"/><path stroke="#000000" stroke-width="1.0" stroke-linejoin="round" stroke-linecap="butt" d="m209.69817 215.08661l186.48817 0l0 64.72443l-186.48817 0z" fill-rule="evenodd"/><path fill="#000000" d="m295.786 254.36882l0 -1.875l1.875 0l0 1.875l-1.875 0zm6.234375 0l0 -1.875l1.859375 0l0 1.875l-1.859375 0zm6.203125 0l0 -1.875l1.875 0l0 1.875l-1.875 0z" fill-rule="nonzero"/><path fill="#000000" fill-opacity="0.0" d="m396.18634 303.4567l25.0 0l0 47.275574l-24.937012 0" fill-rule="evenodd"/><path stroke="#000000" stroke-width="3.0" stroke-linejoin="round" stroke-linecap="butt" d="m396.18634 303.4567l25.0 0l0 47.275574l-6.9370117 0" fill-rule="evenodd"/><path fill="#000000" stroke="#000000" stroke-width="3.0" stroke-linecap="butt" d="m414.24933 345.7771l-13.614288 4.9551697l13.614288 4.9552z" fill-rule="evenodd"/><path fill="#000000" fill-opacity="0.0" d="m396.18634 398.00787l25.0 0l0 47.275604l-24.937012 0" fill-rule="evenodd"/><path stroke="#000000" stroke-width="3.0" stroke-linejoin="round" stroke-linecap="butt" d="m396.18634 398.00787l25.0 0l0 47.275604l-6.9370117 0" fill-rule="evenodd"/><path fill="#000000" stroke="#000000" stroke-width="3.0" stroke-linecap="butt" d="m414.24933 440.32828l-13.614288 4.9552l13.614288 4.9551697z" fill-rule="evenodd"/><path fill="#d9d2e9" d="m125.24672 231.69044l0 0c0 -4.3516846 3.5277405 -7.879425 7.879425 -7.879425l32.997055 0l0 0c2.0897522 0 4.093918 0.8301544 5.571594 2.3078308c1.4776764 1.4776764 2.3078308 3.481842 2.3078308 5.571594l0 31.516739c0 4.3516846 -3.5277405 7.879425 -7.879425 7.879425l-32.997055 0c-4.3516846 0 -7.879425 -3.5277405 -7.879425 -7.879425z" fill-rule="evenodd"/><path stroke="#000000" stroke-width="1.0" stroke-linejoin="round" stroke-linecap="butt" d="m125.24672 231.69044l0 0c0 -4.3516846 3.5277405 -7.879425 7.879425 -7.879425l32.997055 0l0 0c2.0897522 0 4.093918 0.8301544 5.571594 2.3078308c1.4776764 1.4776764 2.3078308 3.481842 2.3078308 5.571594l0 31.516739c0 4.3516846 -3.5277405 7.879425 -7.879425 7.879425l-32.997055 0c-4.3516846 0 -7.879425 -3.5277405 -7.879425 -7.879425z" fill-rule="evenodd"/><path fill="#000000" d="m147.33047 244.49382q0.046875 0 0.09375 0q0.046875 0 0.125 0.015625l0 1.671875q-1.796875 0 -2.65625 0.953125q-0.84375 0.9375 -0.84375 2.921875l0 4.3125l-1.578125 0l0 -9.640625l1.484375 0l0 2.03125l0.046875 0q0.546875 -1.15625 1.359375 -1.703125q0.828125 -0.5625 1.96875 -0.5625zm5.197052 -3.359375q2.296875 0 3.40625 1.578125q1.125 1.578125 1.125 4.765625q0 3.640625 -1.15625 5.390625q-1.140625 1.734375 -3.4375 1.734375q-1.703125 0 -2.78125 -0.875q-1.0625 -0.875 -1.234375 -2.546875l1.59375 0q0.125 0.96875 0.796875 1.5q0.671875 0.515625 1.625 0.515625q1.453125 0 2.171875 -1.25q0.734375 -1.265625 0.8125 -3.859375l-0.03125 -0.046875q-0.46875 0.859375 -1.28125 1.34375q-0.796875 0.484375 -1.796875 0.484375q-1.9375 0 -3.046875 -1.1875q-1.109375 -1.1875 -1.109375 -3.234375q0 -1.875 1.21875 -3.09375q1.21875 -1.21875 3.125 -1.21875zm-2.671875 4.53125q0 1.140625 0.765625 1.984375q0.765625 0.828125 1.84375 0.828125q1.1875 0 1.953125 -0.84375q0.765625 -0.84375 0.765625 -2.078125q0 -1.265625 -0.734375 -2.140625q-0.734375 -0.875 -2.015625 -0.875q-1.203125 0 -1.890625 0.84375q-0.6875 0.84375 -0.6875 2.28125z" fill-rule="nonzero"/><path fill="#d9d2e9" d="m20.0 230.4936l0 0c0 -4.68219 3.7956676 -8.4778595 8.4778595 -8.4778595l38.288376 0c2.2484665 0 4.404846 0.89320374 5.994751 2.4831085c1.5899048 1.5899048 2.4831085 3.7462769 2.4831085 5.994751l0 33.910416c0 4.68219 -3.7956696 8.477875 -8.4778595 8.477875l-38.288376 0c-4.682192 0 -8.4778595 -3.7956848 -8.4778595 -8.477875z" fill-rule="evenodd"/><path stroke="#000000" stroke-width="1.0" stroke-linejoin="round" stroke-linecap="butt" d="m20.0 230.4936l0 0c0 -4.68219 3.7956676 -8.4778595 8.4778595 -8.4778595l38.288376 0c2.2484665 0 4.404846 0.89320374 5.994751 2.4831085c1.5899048 1.5899048 2.4831085 3.7462769 2.4831085 5.994751l0 33.910416c0 4.68219 -3.7956696 8.477875 -8.4778595 8.477875l-38.288376 0c-4.682192 0 -8.4778595 -3.7956848 -8.4778595 -8.477875z" fill-rule="evenodd"/><path fill="#000000" d="m40.13999 244.49382q0.046875 0 0.09375 0q0.046875 0 0.125 0.015625l0 1.671875q-1.796875 0 -2.65625 0.953125q-0.84375 0.9375 -0.84375 2.921875l0 4.3125l-1.578125 0l0 -9.640625l1.484375 0l0 2.03125l0.046875 0q0.546875 -1.15625 1.359375 -1.703125q0.828125 -0.5625 1.96875 -0.5625zm6.853302 -3.359375l0 13.234375l-1.578125 0l0 -9.46875l-3.4375 0l0 -1.28125l0.046875 0q1.6875 0 2.59375 -0.59375q0.921875 -0.609375 1.15625 -1.890625l1.21875 0zm8.922596 0q1.109375 0 1.921875 0.375q0.8125 0.359375 1.375 1.09375q1.109375 1.421875 1.109375 5.265625q0 1.9375 -0.265625 3.234375q-0.265625 1.296875 -0.84375 2.03125q-0.546875 0.71875 -1.375 1.09375q-0.8125 0.375 -1.921875 0.375q-2.2031288 0 -3.2968788 -1.484375q-1.109375 -1.46875 -1.109375 -5.25q0 -3.796875 1.109375 -5.25q1.109375 -1.484375 3.2968788 -1.484375zm-2.7343788 6.71875q0 1.59375 0.171875 2.640625q0.1875 1.03125 0.53125 1.59375q0.7031288 1.109375 2.0312538 1.109375q1.46875 0 2.109375 -1.265625q0.3125 -0.65625 0.453125 -1.640625q0.15625 -1.0 0.15625 -2.375q0 -0.46875 -0.015625 -1.046875q0 -0.578125 -0.078125 -1.15625q-0.0625 -0.59375 -0.234375 -1.15625q-0.15625 -0.578125 -0.453125 -1.015625q-0.3125 -0.4375 -0.78125 -0.71875q-0.46875 -0.28125 -1.171875 -0.28125q-0.640625 0 -1.140625 0.265625q-0.5000038 0.265625 -0.8593788 0.8125q-0.71875 1.078125 -0.71875 4.234375z" fill-rule="nonzero"/><path fill="#000000" fill-opacity="0.0" d="m209.69817 166.31496l-60.06299 0l0 57.51181" fill-rule="evenodd"/><path stroke="#000000" stroke-width="3.0" stroke-linejoin="round" stroke-linecap="butt" d="m209.69817 166.31496l-60.06299 0l0 39.51181" fill-rule="evenodd"/><path fill="#000000" stroke="#000000" stroke-width="3.0" stroke-linecap="butt" d="m144.67998 205.82677l4.9552 13.614304l4.955185 -13.614304z" fill-rule="evenodd"/><path fill="#000000" fill-opacity="0.0" d="m149.62466 271.0866l0 32.37796l60.063004 0" fill-rule="evenodd"/><path stroke="#000000" stroke-width="3.0" stroke-linejoin="round" stroke-linecap="butt" d="m149.62466 271.0866l0 32.37796l42.063004 0" fill-rule="evenodd"/><path fill="#000000" stroke="#000000" stroke-width="3.0" stroke-linecap="butt" d="m191.68767 308.41977l13.614288 -4.9552l-13.614288 -4.9552z" fill-rule="evenodd"/><path fill="#000000" fill-opacity="0.0" d="m209.69817 68.77165l-162.07874 0l0 153.25984" fill-rule="evenodd"/><path stroke="#000000" stroke-width="3.0" stroke-linejoin="round" stroke-linecap="butt" d="m209.69817 68.77165l-162.07874 0l0 135.25984" fill-rule="evenodd"/><path fill="#000000" stroke="#000000" stroke-width="3.0" stroke-linecap="butt" d="m42.664227 204.0315l4.9551964 13.614288l4.9551964 -13.614288z" fill-rule="evenodd"/><path fill="#000000" fill-opacity="0.0" d="m47.622047 272.8819l0 125.13385l162.07874 0" fill-rule="evenodd"/><path stroke="#000000" stroke-width="3.0" stroke-linejoin="round" stroke-linecap="butt" d="m47.622047 272.8819l0 125.13385l144.07874 0" fill-rule="evenodd"/><path fill="#000000" stroke="#000000" stroke-width="3.0" stroke-linecap="butt" d="m191.70079 402.97095l13.614288 -4.9552l-13.614288 -4.9552z" fill-rule="evenodd"/></g></svg>